<svg version="1.2" xmlns="http://www.w3.org/2000/svg" viewBox="0 0 1200 350" width="1200" height="350">
	<title>New Project</title>
	<style>
		.s0 { fill: #494a4b } 
		.s1 { fill: #FFEAC8 } 
		.s2 { fill: #D27856 } 
		.s3 { fill: #865B51 } 
		.s4 { fill: #2F2F2F } 
		.s5 { fill: #E94B8C } 
		.s6 { fill: #EF87B2 } 
		.s7 { fill: #2F2F30 } 
	</style>
	<path id="DAWGðŸ¶" class="s0" aria-label="DAWGðŸ¶"  d="m135.9 201.5h-15.2v10.2h33.2q6.2 0 10.7-2.5 4.4-2.5 7.4-6.2 3-3.7 4.2-7.9 1.5-4.5 1.5-8.4 0-23.8-2.7-39.4-2.5-15.6-7.2-24.3-2.7-0.7-5.7-0.7-3 0-5.7 0h-35.7v2.4h15.2v2.5h-15.2v9.9h15.2v2.5h-15.2v9.9h15.2v2.5h-15.2v9.9h15.2v2.5h-15.2v9.9h15.2v2.5h-15.2v9.9h15.2v2.5h-15.2v9.9h15.2zm18-89.2h-42.8v99.3h4.9v-94.1h39.7q2.4 0 5.2 0.5 2.7 0.2 5.2 1.5-5-7.2-12.2-7.2zm-95.1 158.5v-4.9h100.1q22 0 36.2-6 14.3-5.9 22.5-16.1 8.2-10.4 11.4-23.8 3.2-13.3 3.2-28.2 0-13.6-1.5-28-1.2-14.4-4.9-28-3.5-13.9-9.9-26.5-6.2-12.9-16.1-23.3 12.4 14.9 19.8 39.7 7.7 24.7 7.7 60.9 0 39.1-19.4 56.7-19 17.6-54 17.6h-104.8v-4.9l12.4-12.4v-163.5l-12.4-12.4v-5h104.8q10.4 0 20.6 4.2 10.2 4 19.1 12.4 8.6 6.5 15.1 14.9 6.4 8.4 11.4 18.1h2.7l2.7 2.5h-4.2q1.3 2.4 2.2 4.9 1 2.5 2 5h6.7l1.3 2.4h-7q1 2.5 1.8 5 0.7 2.5 1.4 5h8.7l1 2.4h-8.9q0.7 2.5 1.2 5 0.5 2.5 1 4.9h10.4l0.8 2.5h-10.7q0.5 2.5 0.8 5 0.4 2.5 0.9 4.9h11.4l0.8 2.5h-11.9q0.2 2.5 0.5 5 0.5 2.4 0.7 4.9h12.7l0.2 2.5h-12.6q0.2 2.5 0.2 4.9 0 2.5 0 5h13.7l0.2 2.5h-13.9q0 1 0 2.2 0.3 1.2 0.3 2.5 0 1.2-0.3 2.7 0 1.3 0 2.5h14.6l0.3 2.5h-14.9q-0.2 2.4-0.5 4.9 0 2.5-0.5 5.2h16.1v2.5h-16.3q-0.3 2.5-1 5-0.5 2.2-1 4.7h18.1l-0.3 2.4h-18.5q-1.5 5-3.8 9.9h20.9l-0.5 2.5h-21.6q-1.2 2.5-3 5-1.5 2.5-3.4 4.9h25.5l-1.3 2.5h-26.2q-2.5 2.7-5.7 5.5-3.2 2.4-6.9 4.4h34.1l-1.4 2.5h-37.7q-7.4 3.5-16.9 5.5-9.4 1.9-21.3 1.9zm27.3 2.5h144.7l-3.5 2.5h-145.2zm-12.1 12.4h132l-14.8 2.5h-117.2zm408.5-37.2l1 2.5h-15.1l0.7 2.2 3.5 2.7 2 5h-74.3l-2-5 3.2-4.9h-64.7l-0.7 2.2 2 2.7-1.8 5h-74.3l1.8-5 16.3-12.4 54-163.5-8.2-12.4 1.5-4.9h74.3l1.5 4.9-7.7 12.4 60.2 163.5 7 5-60.2-163.3 7.7-12.6h4.7l1.7 5-6.2 9.9h24.8l1.2 2.4h-27.5l3.5 10h23.3l-1.3 2.4h-21l3.7 9.9h15.1l1 2.5h-15.1l3.5 9.9h15.1l1 2.5h-15.1l3.4 9.9h15.1l1.3 2.5h-15.1l3.4 9.9h15.1l1 2.5h-15.1l3.5 9.9h15.1l1.2 2.5h-15.1l3.5 9.9h15.1l1 2.4h-15.1l3.5 10h15.1l1.2 2.4h-15.1l3.5 9.9h15.1l1 2.5h-15.1l3.7 10.2h15.1l1 2.5h-15.1l3.4 9.6h15.1l1 2.5h-15.1l3.5 9.9h15.1l1 2.5h-15.1l3.7 9.9zm-78-9.9h-63.5l-3.2 9.9h65.2l3.2-5zm-2-4.9h-59.7l-1 2.5h61.7zm-66.4-10l-6.4 19.9 3.4 4.9 6.5-19.8h61.2l-1.8-5zm29.5-59.4l-3.2 9.9h18.6l-3.7-9.9zm6.9-12.4h-3l-3.2 9.9h9.9zm-4-10.6l-2.7-7.2-13.4 40.1h5.2zm-19.8 119.7l-0.7 2.4h-5l1.3 2.5-1.5 5h-74.3l1.4-5h69.7l1.7-4.9zm-4 12.4l3.5 2.4h-58.2l4.9-2.4zm8.2 12.3l-0.7 2.5h-74.4l0.8-2.5zm134-24.7l1 2.4h-5l3.3 2.5 1.7 5h-74.3l-1.7-5h69.6l-2-4.9zm4.7 12.4l5.2 2.4h-58.2l3.2-2.4zm16.8 12.3l0.8 2.5h-74.3l-0.8-2.5zm-138-136.2h1l-0.5-1.5zm419.7-81.8l-16.6 12.4-57.2 160.8 2.4 7 57.8-162.6 16.8-12.6h4.7l-1.7 5-13.4 9.9h24.8l-0.8 2.4h-27.5l-3.4 10h23.3l-3 2.4h-21.1l-3.7 9.9h15.1l-0.7 2.5h-15.1l-3.5 9.9h15.1l-1 2.5h-15.1l-3.5 9.9h15.1l-0.9 2.5h-15.2l-3.4 9.9h15.1l-0.8 2.5h-15.1l-3.4 9.9h15.1l-1 2.5h-15.1l-3.5 9.9h15.1l-1 2.5h-15.1l-3.5 9.9h15.2l-1 2.4h-15.1l-3.5 9.9h15.1l-0.7 2.5h-15.2l-3.7 10.2h15.1l-0.7 2.5h-15.1l-3.5 9.6h15.1l-1 2.5h-15.1l-3.4 9.9h15.1l-0.8 2.5h-15.1l-3.7 9.9h15.1l-0.7 2.5h-15.1l-0.8 2.2 1 1.2 1.7 1.5 1.8 5h-78.8l1.7-5 2-1.5 6.9-10.9-28.2-79.2h-13.9l-3.4 9.9h15.1l-1 2.5h-15.1l-3.5 9.9h15.1l-1 2.4h-15.1l-3.5 9.9h15.2l-0.8 2.5h-15.1l-3.7 10.2h15.1l-0.7 2.5h-15.2l-3.4 9.6h15.1l-1 2.5h-15.1l-3.5 9.9h15.1l-0.7 2.5h-15.1l-3.7 9.9h15.1l-0.8 2.5h-15.1l-0.7 2.2 1 1.2 1.7 1.5 1.7 5h-78.8l1.8-5 2-1.5 6.9-10.9-58.7-163.5-16.9-12.4-1.9-4.9h74.3l2 4.9-8 12.4 37.7 105.1 2.5-7-33.5-92.9 8-12.6h4.7l1.7 5-6.4 9.9h24.7l1.3 2.4h-27.5l3.4 10h23.3l-1.2 2.4h-21.1l3.5 9.9h15.1l1 2.5h-15.1l3.5 9.9h15.1l1 2.5h-15.2l3.5 9.9h15.1l1 2.5h-15.1l3.5 9.9h15.1l0.5 1.2 25-70.6-8.2-12.4 1.8-4.9h74.5l2 4.9-7.9 12.4 37.6 105.1 2.5-7-33.4-92.9 7.9-12.6h4.7l1.7 5-6.4 9.9h24.8l1.2 2.4h-27.5l3.5 10h23.3l-1.3 2.4h-21l3.4 9.9h15.1l1 2.5h-15.1l3.5 9.9h15.1l1 2.5h-15.1l3.5 9.9h15.1l1 2.5h-15.2l3.5 9.9h15.1l0.5 1.2 25-70.6-8.1-12.4 1.7-4.9h74.3zm-164.7 84.2h-5l-3.4 9.9h11.8zm-7.4-20.3l-38.9 109.3 2.5 6.9 38.9-109.5zm-56.7 20.3h-14.2l3.5 9.9h7.2zm-43.1 114h77.5l-1.2-5h6.9l1 2.5h-4.9l2.9 2.5 1.8 4.9h-86zm87.7 7.5l5.5 2.5h-73.6l4.9-2.5zm16.9 12.4l1 2.4h-98.4l0.8-2.4zm-65.9-121.4h-5.2l2.4 7.4zm141.7-12.4h-14.1l3.5 9.9h7.2zm-43.1 114h77.5l-1.2-5h6.9l1 2.5h-5l3 2.5 1.8 4.9h-86zm87.7 7.5l5.4 2.4h-73.5l4.9-2.4zm16.9 12.4l1 2.4h-98.4l0.7-2.4zm-65.9-121.4h-5.2l2.5 7.4zm-72.8-14.9h3.2l-1.7-4.4zm374.8 111.5v2.4h-14.6v7.5l-49.6-0.3v-3q-13.8 4-25.7 4-8.5 0-19.4-3-10.6-2.9-21.5-8.1-10.7-5.2-20.1-12.7-9.1-7.4-14.6-16.3-12.6-13.4-20.1-31.2-7.4-18.1-7.4-38.4 0-20.6 7.4-38.7 7.5-18.1 20.4-31.4 13.1-13.4 30.2-21.1 17.3-7.9 37.1-7.9 14.9 0 28.5 4.4 13.7 4.5 25.1 12.7l-29 40.1q-11.2-7.7-24.6-7.7-9.4 0-17.8 4-8.2 3.9-14.4 10.9-6.2 6.7-9.9 15.8-3.4 9-3.4 19.1 0 9.7 3.2 18.3 3.2 8.5 8.9 15.2-3.5-6.7-5.9-13.7-2.3-7.2-2-14.6 0-9.4 3.4-18.3 3.5-8.9 9.5-15.9 6.1-7.2 14.3-11.4 8.4-4.2 18.4-4.2 12.6 0 24.5 7.7l28-38.6 5.9 3.9-6.9 9.4h8.2l5.9 2.5h-15.9l-7.1 9.9h26.2l-2 2.5h-26l-7.2 9.9h26.3l-2 2.5h-26l-2.5 3.4q-1.5-0.9-2.9-1.7-1.5-1-3-1.7h-36.7q-7.2 3.7-13.1 9.9h77l-1.7 2.5h-77.5q-2 2.2-3.8 4.7-1.4 2.5-2.7 5.2h26.5l-2.9 2.5h-24.8q-2 4.9-3 9.9h20.1l-1.5 2.4h-19.1q-0.2 2.5-0.7 5-0.3 2.5-0.3 5h16.1l-0.7 2.4h-15.4q0.3 4.7 2 9.9h11.9v2.5h-11.2q1.5 5 3.8 9.9h8.1l0.8 2.5h-6.5q5.7 4.7 12.7 7.4 6.9 2.8 14.8 2.8 6.5 0 12.4-1.8 6.2-2 11.4-5.4v-15.4h49.6v71.9h-39.7v4.9h44.4v-66.9h5.2v24.8h14.6v2.5h-14.6v9.9h14.6v2.5h-14.6v9.9h14.6v2.4h-14.6v10zm-91.9 4.9q6.9 0 14.8-1.2 8-1.3 12.9-3.7h-9.9v-3q-5.4 1.2-11.4 2.2-5.7 0.8-12.4 0.8-19.3 0-36.1-7.5-16.9-7.4-29.8-20.3 7.5 9.7 17.1 16.1 9.7 6.2 19.6 9.9 9.9 3.7 19.1 5.2 9.4 1.5 16.1 1.5zm4.2-142.9q-7 0-12.4 1.7h23.8q-5.2-1.7-11.4-1.7zm87.7 150.3v2.5h-120.2l-4.4-2.5zm-96.2 12.4h39.2l-13.6 2.5h-13.2zm96.2 0v2.5h-49.6v-2.5z"/>
	<path id="DAWGðŸ¶" class="s1" aria-label="DAWGðŸ¶"  d="m1087.4 157.1q13 0.4 21.9 3.2 8.9 2.9 14.7 7.2 5.8 4.3 9.1 9.1 3.4 4.8 4.9 9.2 1.6 4.4 2.2 7.2 0.8 3.8 1.2 11 0.4 7.1-0.5 16.1-0.9 8.9-3.8 18.1-2.9 9.2-8.9 16.9-7 9.3-17.1 12.4-10.2 3.2-21.8 3.4-11.4 0.3-21.7-3.6-10.3-4-17.1-11.9-5.2-6.3-8.2-13.3-2.9-7.1-4.2-14.2-1.2-7.1-1.4-13.5-0.2-6.4 0.1-11.3 0.4-4.9 0.5-7.4 0.3-3.2 2.1-8.2 1.7-5 5.3-10.3 3.6-5.4 9.4-10.1 5.7-4.6 13.9-7.5 8.3-2.8 19.4-2.5z"/>
	<path id="DAWGðŸ¶" class="s2" aria-label="DAWGðŸ¶"  d="m1129.7 213.9q-1-7.5-6.1-12.2-5.1-4.6-12-3.8-4.4 0.4-7.5 3.4-3.2 3-4.8 7.5-1.6 4.4-1.4 9.4 0.4 7.4 5 11.9 4.6 4.5 12.3 3.9 5.8-0.2 9.2-3.2 3.4-3 4.7-7.5 1.3-4.4 0.6-9.4zm-99.5-48.3q6-3.5 11-3.8 5-0.4 8.6 0.8 3.6 1.3 5.5 2.7 1.9 1.4 1.9 1.4 0 0-0.8 1.9-0.8 1.9-1.4 4.7-0.4 1.3-0.7 5.3-0.2 4.1-0.7 9.4-0.5 5.3-1.1 10.8-0.6 5.5-1.7 9.9-2 8.8-7.4 14.8-5.4 6-12 6.2-4.4 0.1-7.9-2.1-3.4-2.2-5.6-5.6-2.3-3.4-3.3-7.2-0.9-2.8-1.5-7.5-0.6-4.6-0.8-10.1-0.2-5.4 0.3-10.5 0.5-5.1 2-8.8 1.2-2.7 3.7-5 2.5-2.2 5.2-3.9 2.8-1.6 4.7-2.5 2-0.9 2-0.9zm105.1-1.5q-7.8-1.6-11.9-1.8-4.1-0.2-5.2 0.4-1.1 0.6-0.2 1.6 0.8 0.9 2 3.4 1.2 2.4 2.4 5.4 1.1 2.9 1.8 4.8 1 3 2.3 8.8 1.3 5.8 2.2 10.8 0.6 3.6 1.9 7.8 1.3 4.3 3.2 8.6 1.9 4.2 4.5 7.3 2.5 3.2 6.2 4.1 3.6 1 7 0.1 3.5-0.9 5.7-3.4 2.2-2.3 3.4-6.4 1.2-4.1 1.9-9.1 0.7-5 1-10 0.2-5 0.4-9.1 0.2-8.1-2.1-13.8-2.3-5.6-5.4-7-1.5-0.7-4.9-1.2-3.4-0.4-7.2-0.7-3.7-0.3-6.4-0.4-2.6-0.2-2.6-0.2z"/>
	<path id="DAWGðŸ¶" class="s3" aria-label="DAWGðŸ¶"  d="m1044.3 160.1q5.7 0.4 8.5 2 2.8 1.6 3.6 3.2 0.9 1.6 0.9 1.6 0 0-1.2 1.3-1.2 1.4-2.3 2.6-0.7 1-1.4 3.6-0.7 2.5-1.3 6-0.6 3.5-1 6.8-0.4 2.4-1.1 7-0.8 4.7-2.3 10-1.5 5.3-3.9 10.2-2.5 4.9-6.3 8-3.7 3-6.7 3.2-3 0.1-5.2-1.7-2.3-1.9-3.9-4.7-1.6-2.9-2.6-5.6-1-2.7-1.8-8-0.8-5.4-1.1-11.5-0.2-6.1 0-11.5 0.3-5.4 1.5-8.2 1.3-2.9 4.3-5.6 3.1-2.6 7.2-4.7 4.2-2 8.4-3.1 4.2-1.1 7.7-0.9zm93-1.5q-6.5-0.6-10.6 0.2-4 0.8-6.1 2.1-2.1 1.2-2.8 2.2-0.8 1-0.8 1 0 0 1.7 1.1 1.7 1 3.7 2.7 2 1.7 2.9 3.9 2.3 5.3 4.3 12.4 2 7.2 3.7 14.5 1.3 5.1 3.1 9.9 1.9 4.7 4.5 7.9 2.7 3.2 6.6 3.8 4 0.4 6.4-1.9 2.5-2.4 3.8-6.3 1.4-4 2.1-8.3 0.4-3.2 0.8-7.7 0.4-4.6 0.5-9.5 0-5-0.4-9.4-0.5-4.5-1.7-7.3-2.8-5.6-9-8.3-6.2-2.6-12.7-3z"/>
	<path id="DAWGðŸ¶" class="s4" aria-label="DAWGðŸ¶"  d="m1070.5 218.1q0.5-3.4-0.8-6.1-1.2-2.8-6-2.9-3 0-4.3 2.1-1.4 2.1-1.8 5.4-0.4 3.3 1.2 5.9 1.5 2.7 4.1 2.9 3.7 0.5 5.5-1.8 1.7-2.2 2.1-5.5zm50.2-1.2q-0.2-3.4-1.7-6-1.6-2.5-5.7-1.9-3.1 0.4-4.7 2.8-1.5 2.3-1.4 5.6 0.1 3.3 1.8 5.7 1.7 2.5 5 2.2 3.8-0.3 5.3-2.7 1.5-2.5 1.4-5.7zm-18.7 22q-0.1-2.1-1.1-4.1-0.9-1.9-3.5-3-2.6-1.2-7.6-1.2-5.5 0.2-9 2.7-3.4 2.6-3.3 5.9 0.1 3.3 2.9 5.7 2.8 2.3 9.6 2.5 7 0 9.6-2.6 2.6-2.6 2.4-5.9z"/>
	<path id="DAWGðŸ¶" class="s5" aria-label="DAWGðŸ¶"  d="m1081.6 256.6l7.7-2.7 8.5 1.2q0 0 0.2 2.6 0.2 2.5 0.1 5.8 0 3.4-0.9 6.1-0.8 3-3.6 4.3-2.9 1.3-5.8 0.5-2.9-0.9-4-4.1-0.6-1.7-1.1-4.9-0.4-3.2-0.8-6-0.3-2.8-0.3-2.8z"/>
	<path id="DAWGðŸ¶" class="s6" aria-label="DAWGðŸ¶"  d="m1090.3 260.2q1.1 0 1.2 1.5 0.2 1.6 0.2 3.4 0 1.6-0.1 3.1-0.1 1.5-1.2 1.7-1.1 0-1.3-1.4-0.3-1.4-0.3-3.7 0-2.4 0.2-3.5 0.2-1.1 1.3-1.1z"/>
	<path id="DAWGðŸ¶" class="s7" aria-label="DAWGðŸ¶"  d="m1070.1 246.8q0.7-1.1 2.1-0.6 1.3 0.5 2.6 1.4 1.3 0.9 2 1.3 1.1 0.5 2.9 1.7 1.7 1.1 3.7 1 3.8-0.1 3.8-3.7 0-0.7-0.1-2.5-0.1-1.8-0.1-1.8h5.3q0 0 0 0.7 0 0.8 0.2 3.1 0 3 1.1 3.9 1.2 1 3 1 1.6 0 2.8-0.6 1.3-0.6 3.7-1.9 2.3-1.2 4.4-2.4 2-1.2 3.1 0.1 1 1.4-0.6 2.8-1.6 1.4-3.4 2.7-0.9 0.5-3.6 2.6-2.6 2-5.1 2.3-3.1 0.4-4.8-0.4-1.7-0.7-2.3-1.6-0.6-0.9-0.6-0.9 0 0-1.2 1.5-1.2 1.5-4.4 1.5-3 0.1-5.5-1.5-2.6-1.6-4.6-3-2-1.5-3.9-3.1-1.8-1.7-0.5-3.6z"/>
</svg>